<svg xmlns="http://www.w3.org/2000/svg" xmlns:xlink="http://www.w3.org/1999/xlink" version="1.1" width="1000" height="1000" viewBox="0 0 1000 1000" xml:space="preserve">
<desc>Created with Fabric.js 3.5.0</desc>
<defs>
</defs>
<rect x="0" y="0" width="100%" height="100%" fill="#ffffff"/>
<g transform="matrix(45.4545 0 0 45.4545 499.9995 519.1252)" id="751174">
<path style="stroke: rgb(0,0,0); stroke-width: 1; stroke-dasharray: none; stroke-linecap: butt; stroke-dashoffset: 0; stroke-linejoin: round; stroke-miterlimit: 4; is-custom-font: none; font-file-url: none; fill: none; fill-rule: evenodd; opacity: 1;" vector-effect="non-scaling-stroke" transform=" translate(-12, -11.7533)" d="m 12 2 c -5.525 0 -10 4.475 -10 10 c 0 4.425 2.8625 8.1625 6.8375 9.4875 c 0.5 0.0875 0.6875 -0.2125 0.6875 -0.475 c 0 -0.2375 -0.0125 -1.025 -0.0125 -1.8625 c -2.5125 0.4625 -3.1625 -0.6125 -3.3625 -1.175 c -0.1125 -0.2875 -0.6 -1.175 -1.025 -1.4125 c -0.35 -0.1875 -0.85 -0.65 -0.0125 -0.6625 c 0.7875 -0.0125 1.35 0.725 1.5375 1.025 c 0.9 1.5125 2.3375 1.0875 2.9125 0.825 c 0.0875 -0.65 0.35 -1.0875 0.6375 -1.3375 c -2.225 -0.25 -4.55 -1.1125 -4.55 -4.9375 c 0 -1.0875 0.3875 -1.9875 1.025 -2.6875 c -0.1 -0.25 -0.45 -1.275 0.1 -2.65 c 0 0 0.8375 -0.2625 2.75 1.025 c 0.8 -0.225 1.65 -0.3375 2.5 -0.3375 s 1.7 0.1125 2.5 0.3375 c 1.9125 -1.3 2.75 -1.025 2.75 -1.025 c 0.55 1.375 0.2 2.4 0.1 2.65 c 0.6375 0.7 1.025 1.5875 1.025 2.6875 c 0 3.8375 -2.3375 4.6875 -4.5625 4.9375 c 0.3625 0.3125 0.675 0.9125 0.675 1.85 c 0 1.3375 -0.0125 2.4125 -0.0125 2.75 c 0 0.2625 0.1875 0.575 0.6875 0.475 c 1.9852 -0.6702 3.7102 -1.946 4.9323 -3.648 c 1.2221 -1.7019 1.8797 -3.7442 1.8802 -5.8395 c 0 -5.525 -4.475 -10 -10 -10 z" stroke-linecap="round"/>
</g>
</svg>